PathFileType	4	(X/Y/Z)	S01_0014_Gait_markers.trc
DataRate	CameraRate	NumFrames	NumMarkers	Units	OrigDataRate	OrigDataStartFrame	OrigNumFrames
250.000000	250.000000	4	54	mm	250.000000	275	367
Frame#	Time	HEAD_ANT			R_HEAD			L_HEAD			C7			R_BACK			L_BACK			STERNUM			R_ACROMION			R_HUM_PROX			R_HUM_ANT			R_HUM_POST			R_ELBOW_LAT			R_ELBOW_MED			R_FOREARM			R_WIRST_LAT			R_WRITS_MED			R_HAND			L_ACROMION			L_HUM_PROX			L_HUM_ANT			L_HUM_POST			L_ELBOW_LAT			L_ELBOW_MED			L_FOREARM			L_WRIST_LAT			L_WIRST_MED			L_HAND			R_ILIAC			SACRUM			L_ILIAC			R_GTROCH			R_THIGH__1			R_THIGH_2			R_THIGH_3			R_THIGH_4			R_SHANK_1			R_SHANK_2			R_SHANK_3			R_SHANK_4			R_HEEL			R_FOOT_LAT			R_FOOT_MED			L_GTROCH			L_THIGH_1			L_THIGH_2			L_THIGH_3			L_THIGH_4			L_SHANK_1			L_SHANK_2			L_SHANK_3			L_SHANK_4			L_HEEL			L_FOOT_LAT			L_FOOT_MED			
		X1	Y1	Z1	X2	Y2	Z2	X3	Y3	Z3	X4	Y4	Z4	X5	Y5	Z5	X6	Y6	Z6	X7	Y7	Z7	X8	Y8	Z8	X9	Y9	Z9	X10	Y10	Z10	X11	Y11	Z11	X12	Y12	Z12	X13	Y13	Z13	X14	Y14	Z14	X15	Y15	Z15	X16	Y16	Z16	X17	Y17	Z17	X18	Y18	Z18	X19	Y19	Z19	X20	Y20	Z20	X21	Y21	Z21	X22	Y22	Z22	X23	Y23	Z23	X24	Y24	Z24	X25	Y25	Z25	X26	Y26	Z26	X27	Y27	Z27	X28	Y28	Z28	X29	Y29	Z29	X30	Y30	Z30	X31	Y31	Z31	X32	Y32	Z32	X33	Y33	Z33	X34	Y34	Z34	X35	Y35	Z35	X36	Y36	Z36	X37	Y37	Z37	X38	Y38	Z38	X39	Y39	Z39	X40	Y40	Z40	X41	Y41	Z41	X42	Y42	Z42	X43	Y43	Z43	X44	Y44	Z44	X45	Y45	Z45	X46	Y46	Z46	X47	Y47	Z47	X48	Y48	Z48	X49	Y49	Z49	X50	Y50	Z50	X51	Y51	Z51	X52	Y52	Z52	X53	Y53	Z53	X54	Y54	Z54	

276	1.1	1486.037109375	1740.50537109375	-358.1859741210934	1425.313598632812	1693.730224609375	-280.3486022949215	1426.352783203125	1690.635009765625	-426.9587707519527	1287.475219726562	1522.75244140625	-356.9201049804684	1213.304321289062	1323.8955078125	-293.1549987792966	1219.665161132812	1328.694580078125	-433.0086975097653	1466.49853515625	1361.822021484375	-350.6673278808591	1357.926147460938	1471.523193359375	-180.3636169433591	1310.441528320312	1309.700805664062	-93.34188079833956	1369.714233398438	1222.9140625	-86.83460998535129	1248.440795898438	1227.548461914062	-86.76776885986301	1291.728271484375	1120.503173828125	-77.55838012695287	1275.789184570312	1117.518920898438	-160.611389160156	1404.562744140625	943.2159423828125	-74.19535827636697	1449.86279296875	882.7886352539062	-113.6509323120115	1382.334228515625	851.5719604492188	-80.44705200195294	1457.748657226562	795.0757446289062	-57.3313903808592	1375.768188476562	1479.787719726563	-520.4672851562497	1362.14794921875	1312.878540039063	-617.7238159179684	1425.822265625	1233.717041015625	-611.928527832031	1306.8974609375	1234.2578125	-647.1900634765623	1367.736328125	1131.1630859375	-650.7573242187498	1312.630859375	1122.505126953125	-595.3963623046873	1493.653076171875	972.7959594726564	-611.8979492187498	1526.892578125	919.6093750000001	-553.5497436523435	1492.937622070312	888.1002807617189	-617.1059570312498	1574.458374023438	843.1913452148439	-590.9897460937498	1372.207641601562	1077.20458984375	-181.2313537597654	1238.70751953125	1047.72412109375	-342.3684082031248	1352.613647460938	1069.24853515625	-524.5576171874998	1341.538452148438	922.2933349609375	-161.4855804443357	1467.391967773438	657.7009887695312	-187.7008209228514	1516.486938476562	690.1487426757812	-186.5460357666014	1549.506103515625	593.3555297851562	-221.2064971923827	1487.016235351562	580.5135498046875	-209.1000671386717	1491.166748046875	365.4464111328126	-202.636734008789	1546.5068359375	345.9093933105469	-217.5016632080077	1544.26318359375	260.8480834960938	-233.1794281005859	1480.98681640625	265.4919128417969	-221.8559570312499	1450.254028320312	49.97358322143562	-304.1824951171875	1609.9658203125	34.16625595092778	-215.7514190673828	1664.7822265625	55.5076637268067	-302.7701416015625	1311.306762695312	961.1170654296876	-524.1808471679685	1348.5654296875	667.5197143554689	-502.1372680664061	1298.946166992188	695.8906860351564	-514.7845458984374	1268.97314453125	599.5965576171876	-480.0863647460936	1332.094360351562	590.0137939453126	-476.115997314453	1239.796264648438	331.653533935547	-455.0042419433593	1179.875732421875	319.598846435547	-452.8080444335937	1164.4599609375	236.1938934326173	-431.1585083007812	1228.392578125	232.3336639404298	-427.4311828613281	1101.801147460938	58.13804244995125	-348.3660278320312	1272.017944335938	19.71179580688486	-425.3295593261719	1311.880981445312	29.20344734191902	-320.5616760253906	
277	1.104	1491.327270507812	1739.623291015625	-358.0007934570309	1430.60546875	1692.736694335938	-280.305999755859	1431.850708007812	1689.766967773438	-426.8802490234371	1292.8232421875	1521.987060546875	-357.2102050781247	1219.5009765625	1323.363159179688	-293.4177551269528	1224.936767578125	1327.908081054688	-433.3627014160153	1471.69970703125	1360.729125976562	-350.8312072753903	1362.888305664062	1470.473510742188	-180.5010070800778	1315.201782226562	1308.631103515625	-93.568061828613	1374.733520507812	1221.790405273438	-87.04568481445285	1253.443115234375	1226.418701171875	-87.33652496337864	1297.109252929688	1119.308715820312	-77.94754028320288	1280.800415039062	1116.484375	-161.1392364501951	1409.380859375	942.0610961914062	-74.30348205566385	1454.63330078125	881.6117553710938	-112.8603591918943	1386.6884765625	850.6893310546875	-80.01878356933575	1462.225219726562	793.8677368164062	-57.35911941528303	1381.13818359375	1478.893432617188	-520.5993041992184	1367.656127929688	1312.118408203125	-617.8195190429684	1431.398071289062	1232.883544921875	-611.9716796874998	1312.701293945312	1233.34814453125	-647.2699584960935	1373.533935546875	1130.189697265625	-650.8468627929685	1318.109619140625	1121.5908203125	-595.8654785156248	1499.66943359375	972.2178955078126	-611.395568847656	1532.734008789062	919.1541748046876	-552.9698486328123	1499.153198242188	887.5397338867189	-616.5357666015623	1580.700805664062	842.8947753906251	-590.0380859374998	1377.559448242188	1076.26416015625	-181.3714141845701	1244.070556640625	1046.895263671875	-342.5468749999998	1357.858276367188	1068.297119140625	-524.7172241210935	1346.445068359375	920.9848022460938	-161.6908111572264	1472.648681640625	656.7442626953125	-188.1385650634764	1521.520385742188	689.3833618164062	-186.9526367187499	1554.916381835938	592.6866455078125	-221.6022796630858	1492.354125976562	579.5471801757812	-209.6342163085936	1500.804809570312	363.9895019531251	-203.3422088623046	1556.523193359375	345.7044982910157	-218.4118652343749	1556.494262695312	260.9517517089844	-233.8239593505859	1492.721557617188	263.9852600097657	-222.7759246826171	1466.367797851562	48.24531936645515	-305.8272705078125	1626.306518554688	34.54356002807622	-217.5646057128906	1680.856201171875	57.33458328247077	-304.69970703125	1316.075805664062	959.9010620117189	-523.781799316406	1351.046752929688	666.9838867187501	-502.4911193847655	1301.403564453125	695.7539062500001	-515.0501098632811	1271.039184570312	599.6350708007814	-480.1936035156249	1334.168579101562	589.6434326171876	-476.7193603515624	1240.697021484375	331.847625732422	-455.2792968749999	1180.606689453125	320.0650329589845	-452.8160705566406	1165.097412109375	236.578109741211	-431.1537780761718	1229.045776367188	232.483367919922	-427.4739990234374	1101.9521484375	58.73445892333992	-348.236083984375	1271.948608398438	19.76316452026377	-425.2954711914062	1311.970947265625	29.24941253662116	-320.6358642578125	
278	1.108	1496.7646484375	1738.546142578125	-357.9142150878902	1435.916259765625	1691.536254882812	-280.2066650390621	1437.1455078125	1689.0166015625	-426.7615356445309	1298.059204101562	1520.961059570312	-357.3986816406247	1223.252563476562	1322.032348632812	-293.7130432128903	1230.22802734375	1327.0546875	-433.7823791503903	1476.8642578125	1359.766479492188	-350.8856201171872	1367.9423828125	1469.41845703125	-180.7165222167966	1320.112182617188	1307.43310546875	-93.81906890869112	1379.65625	1220.711303710938	-87.22077178955051	1258.214721679688	1225.258666992188	-87.8420333862302	1303.805053710938	1117.72900390625	-77.98805236816382	1285.6572265625	1115.4755859375	-161.7189636230466	1414.243041992188	940.90185546875	-74.47440338134744	1459.5146484375	880.4052734375	-112.9288101196287	1391.381469726562	849.514404296875	-80.26942443847638	1466.904541015625	792.7130737304688	-57.20729064941388	1386.590209960938	1477.8916015625	-520.7007446289059	1373.322875976562	1311.241943359375	-617.9476928710934	1436.989135742188	1232.044067382813	-611.9411010742185	1318.172241210938	1232.369140625	-647.597717285156	1379.2294921875	1129.247436523438	-650.980041503906	1324.024291992188	1120.48193359375	-596.041809082031	1505.640991210938	971.6010131835939	-610.785217285156	1538.76611328125	918.8066406250001	-552.367248535156	1505.377319335938	886.8364868164064	-615.9827880859373	1586.933959960938	842.5155639648439	-589.058898925781	1382.613159179688	1075.464233398438	-181.6408996582029	1249.23779296875	1046.100952148438	-342.6282653808591	1363.146850585938	1067.404296875	-525.0989990234373	1351.715576171875	920.3146362304688	-162.3126373291014	1477.689697265625	655.945556640625	-188.3363952636717	1526.612915039062	688.2556762695312	-187.2511291503905	1560.197998046875	591.9175415039062	-221.9162597656249	1497.704223632812	578.6278686523438	-210.0803070068358	1510.328247070312	362.5044250488282	-204.0130462646484	1566.367919921875	345.5036621093751	-219.5391540527343	1567.904663085938	260.8550109863282	-233.6642913818359	1504.366455078125	262.5122070312501	-223.4125823974609	1482.369384765625	46.73405456542976	-307.4077453613281	1642.749389648438	35.32621765136724	-219.4716033935547	1696.747680664062	59.33199691772468	-306.4818725585938	1321.032836914062	959.1923217773439	-523.8159179687498	1353.212280273438	665.6785888671876	-503.0187988281248	1303.919067382812	695.1364746093751	-515.2485961914061	1273.27685546875	599.7027587890626	-480.4176025390624	1336.209350585938	589.3850097656251	-476.8168640136718	1241.661865234375	331.964569091797	-455.6716613769531	1181.484130859375	320.3702392578126	-452.8836669921874	1165.658325195312	237.0386505126954	-431.1894226074218	1229.716430664062	232.6403808593751	-427.6781616210937	1102.07421875	59.39278411865242	-348.1314086914062	1271.792114257812	19.68827247619638	-425.2463684082031	1312.03955078125	29.27899932861335	-320.7274475097656	
279	1.112	1502.079833984375	1737.621826171875	-357.7966613769527	1441.325561523438	1690.411010742188	-280.1893615722652	1442.561401367188	1687.929443359375	-426.7279052734371	1303.230102539062	1519.962036132812	-357.5256347656247	1228.420654296875	1321.131591796875	-294.3309936523435	1235.45703125	1326.070678710938	-434.0165100097653	1482.044555664062	1358.628051757812	-350.9833374023435	1373.027587890625	1468.280395507812	-180.7795562744137	1325.050903320312	1306.2548828125	-94.1963577270505	1384.6171875	1219.542358398438	-87.40669250488254	1263.169799804688	1224.098999023438	-88.24565124511692	1307.390625	1116.695922851562	-78.65679168701148	1290.915893554688	1114.269287109375	-161.7914733886716	1418.91943359375	939.5338745117188	-74.67848205566385	1464.476440429688	879.0509643554688	-113.1109313964842	1396.12939453125	848.2522583007812	-80.50611114501935	1471.687866210938	791.5531005859375	-57.21352386474592	1392.03564453125	1477.007202148438	-520.8372802734372	1378.951538085938	1310.304443359375	-618.0651245117184	1442.691772460938	1231.142822265625	-612.0355834960935	1323.953369140625	1231.543823242188	-647.8741455078123	1385.212524414062	1128.359252929688	-651.0268554687498	1329.744750976562	1119.393188476563	-596.216857910156	1511.620849609375	971.0198364257814	-610.3861694335935	1544.777221679688	918.3524780273439	-551.6417846679685	1511.780151367188	886.2357177734376	-615.3975830078123	1593.296752929688	842.0215454101564	-588.1127929687498	1387.949829101562	1074.611083984375	-181.6424102783201	1254.711547851562	1045.125610351562	-342.495666503906	1368.740234375	1066.471801757813	-525.3331298828123	1356.780883789062	919.200439453125	-162.5831604003904	1482.734252929688	654.6882934570312	-189.1208496093749	1531.422729492188	687.3717041015625	-187.5957641601561	1565.527709960938	590.9834594726562	-222.1556854248045	1502.897827148438	577.6067504882812	-210.4302825927733	1519.81494140625	361.2330627441407	-204.8531799316405	1576.128784179688	345.4086608886719	-220.457305908203	1579.756591796875	260.6436767578126	-235.8016815185546	1515.909301757812	261.0390319824219	-224.3605804443359	1498.215576171875	45.27512359619148	-308.8155517578125	1659.15869140625	35.94235992431646	-221.6239318847656	1712.48486328125	61.44644546508796	-308.5089111328125	1325.90380859375	958.7505493164064	-524.1097412109373	1356.160888671875	665.9537963867189	-503.3119506835936	1307.00830078125	695.4608154296876	-515.5220336914061	1275.429931640625	599.5622558593751	-480.3781433105468	1338.516845703125	589.0356445312501	-477.0829772949218	1242.5263671875	332.0359191894532	-455.7189941406249	1182.505615234375	320.7048339843751	-452.9597473144531	1166.234985351562	237.4664611816407	-431.2033691406249	1230.432250976562	232.9118804931641	-427.8265686035156	1102.2470703125	59.95203018188484	-347.950439453125	1271.753540039062	19.66640472412119	-425.215087890625	1312.129150390625	29.315565109253	-320.7807922363281	
